<svg xmlns="http://www.w3.org/2000/svg" fill="none" viewBox="0 0 39 39" height="39" width="39">
<path fill-opacity="0.54" fill="black" d="M33.3125 8.125V11.83C34.2712 12.3988 34.9375 13.4225 34.9375 14.625V24.375C34.9375 25.5775 34.2712 26.6012 33.3125 27.17V30.875C33.3125 32.6625 31.85 34.125 30.0625 34.125H7.3125C5.50875 34.125 4.0625 32.6625 4.0625 30.875V8.125C4.0625 6.3375 5.50875 4.875 7.3125 4.875H30.0625C31.85 4.875 33.3125 6.3375 33.3125 8.125ZM20.3125 24.375H31.6875V14.625H20.3125V24.375ZM7.3125 30.875V8.125H30.0625V11.375H20.3125C18.525 11.375 17.0625 12.8375 17.0625 14.625V24.375C17.0625 26.1625 18.525 27.625 20.3125 27.625H30.0625V30.875H7.3125ZM22.75 19.5C22.75 18.1538 23.8413 17.0625 25.1875 17.0625C26.5337 17.0625 27.625 18.1538 27.625 19.5C27.625 20.8462 26.5337 21.9375 25.1875 21.9375C23.8413 21.9375 22.75 20.8462 22.75 19.5Z" clip-rule="evenodd" fill-rule="evenodd"></path>
</svg>
