<svg xmlns="http://www.w3.org/2000/svg" fill="none" viewBox="0 0 176 52" height="52" width="176">
<path fill="url(#paint0_linear)" d="M10.2295 43.1032C9.9235 41.8823 9.53005 40.1817 9.04918 38.0015L7.27869 30.8067L5.31148 22.5654L0 0H13.0492L22.3607 45H10.6885L10.2295 43.1032ZM20.5246 22.5L25.4426 0H38.8852L49.6393 45H38.4262L36.5246 37.1512L34.5574 28.8445C33.7268 25.4869 32.9399 22.1948 32.1967 18.968H31.8033L29.5738 28.8445L28.8525 32.1802C28.6339 33.0959 28.4153 33.968 28.1967 34.7965C28.0219 35.625 27.847 36.4099 27.6721 37.1512L26.3607 42.8416L25.8361 45H25.1148L20.5246 22.5ZM47.0164 22.1076L50.9508 0H64L56.6557 30.8067C55.8251 34.1642 55.2568 36.5625 54.9508 38.0015L53.7049 43.1032L53.2459 45H52.459L47.0164 22.1076Z"></path>
<path fill="#22418D" d="M76.72 32.36C76.72 31.6667 76.6933 31.1733 76.64 30.88C76.5867 30.5867 76.4267 30.3733 76.16 30.24C75.92 30.1067 75.4667 30.0133 74.8 29.96C74.4 29.9333 73.5333 29.92 72.2 29.92C70.92 29.92 69.7333 29.9733 68.64 30.08L66.52 30.2V25C69.0267 24.52 71.7333 24.28 74.64 24.28C76.88 24.28 78.6267 24.44 79.88 24.76C81.16 25.08 82.12 25.5867 82.76 26.28C83.32 26.92 83.68 27.7333 83.84 28.72C84.0267 29.7067 84.12 31.08 84.12 32.84V45H76.72V32.36ZM70.8 45.28C68.96 45.28 67.6 44.7733 66.72 43.76C65.84 42.72 65.4 41.16 65.4 39.08C65.4 37.8 65.4933 36.7733 65.68 36C65.8667 35.2 66.1867 34.5733 66.64 34.12C67.0933 33.64 67.72 33.3067 68.52 33.12C69.32 32.9067 70.3733 32.8 71.68 32.8L75.04 32.88V36.44H74.64C74.0267 36.44 73.6267 36.4533 73.44 36.48C72.9067 36.5067 72.6267 36.76 72.6 37.24C72.5733 37.4 72.56 37.7333 72.56 38.24C72.56 38.64 72.5733 38.9467 72.6 39.16C72.6533 39.3733 72.7333 39.5467 72.84 39.68C72.9733 39.8667 73.1733 39.9733 73.44 40C73.8133 40.0533 74.2133 40.08 74.64 40.08H75.04V44.16C74.4533 44.6133 73.8267 44.9067 73.16 45.04C72.52 45.2 71.7333 45.28 70.8 45.28ZM97.6647 25.76C98.2247 25.2267 98.878 24.8533 99.6247 24.64C100.398 24.4 101.345 24.28 102.465 24.28V30.96C101.265 30.96 100.278 31.04 99.5047 31.2C98.758 31.36 98.1447 31.64 97.6647 32.04V25.76ZM88.5847 24.6H95.9847V45H88.5847V24.6ZM116.542 15.28H123.942V45H116.542V15.28ZM110.782 45.28C109.715 45.28 108.795 45.1067 108.022 44.76C107.275 44.4133 106.675 43.8533 106.222 43.08C105.715 42.28 105.342 41.2133 105.102 39.88C104.888 38.5467 104.782 36.88 104.782 34.88C104.782 30.96 105.262 28.2133 106.222 26.64C107.128 25.0933 108.648 24.32 110.782 24.32C111.742 24.32 112.528 24.4 113.142 24.56C113.755 24.6933 114.328 24.9733 114.862 25.4V30.48H114.422C113.835 30.48 113.408 30.52 113.142 30.6C112.902 30.6533 112.715 30.8 112.582 31.04C112.448 31.3333 112.368 31.76 112.342 32.32C112.315 32.72 112.302 33.5467 112.302 34.8C112.302 36.0533 112.315 36.88 112.342 37.28C112.368 37.84 112.448 38.2667 112.582 38.56C112.715 38.8267 112.928 38.9867 113.222 39.04C113.595 39.0933 113.995 39.12 114.422 39.12H114.862V44.2C114.328 44.6 113.728 44.88 113.062 45.04C112.422 45.2 111.662 45.28 110.782 45.28ZM136.947 32.8H139.747C139.747 31.3067 139.6 30.3467 139.307 29.92C139.147 29.68 138.933 29.5333 138.667 29.48C138.4 29.4 138.013 29.36 137.507 29.36H136.947V24.28H137.507C139.8 24.28 141.56 24.4667 142.787 24.84C144.04 25.2133 144.96 25.8267 145.547 26.68C146.08 27.4267 146.4 28.3867 146.507 29.56C146.64 30.7333 146.707 32.4933 146.707 34.84V36.44H136.947V32.8ZM138.307 45.32C135.853 45.32 133.92 45.12 132.507 44.72C131.12 44.2933 130.08 43.6267 129.387 42.72C128.773 41.92 128.373 40.9333 128.187 39.76C128 38.56 127.907 36.92 127.907 34.84C127.907 32.92 127.973 31.4 128.107 30.28C128.24 29.1333 128.52 28.16 128.947 27.36C129.427 26.48 130.16 25.8 131.147 25.32C132.16 24.8133 133.533 24.4933 135.267 24.36V36.44C135.267 37.3467 135.307 38 135.387 38.4C135.467 38.7733 135.653 39.0533 135.947 39.24C136.267 39.4533 136.76 39.5733 137.427 39.6C138.28 39.6533 139.187 39.68 140.147 39.68C141.853 39.68 143.093 39.64 143.867 39.56L145.907 39.4V44.56C144.84 44.88 143.373 45.0933 141.507 45.2C140.6 45.28 139.533 45.32 138.307 45.32ZM162.332 35.36C162.332 33.9467 162.319 33.0133 162.292 32.56C162.239 31.8133 162.172 31.32 162.092 31.08C161.986 30.8133 161.799 30.6533 161.532 30.6C161.266 30.52 160.839 30.48 160.252 30.48H159.852V25.48C160.892 24.7067 162.252 24.32 163.932 24.32C166.332 24.32 167.946 25.0533 168.772 26.52C169.146 27.16 169.399 27.9467 169.532 28.88C169.666 29.7867 169.732 30.9067 169.732 32.24V45H162.332V35.36ZM150.772 24.6H158.172V45H150.772V24.6Z"></path>
<defs>
<linearGradient gradientUnits="userSpaceOnUse" y2="61.8189" x2="32.0031" y1="-17.1366" x1="32.0031" id="paint0_linear">
<stop stop-color="#F1F1F1" offset="0.234375"></stop>
<stop stop-color="#009FFD" offset="0.6875"></stop>
<stop stop-color="#22418D" offset="1"></stop>
</linearGradient>
</defs>
</svg>
